<svg width="29" height="25" viewBox="0 0 29 25" fill="none" xmlns="http://www.w3.org/2000/svg">
  <path
    d="M8.55619 19.7038V25H20.0636V19.7038C24.897 19.2514 28.6198 15.2096 28.6198 10.299V8.50971L14.8241 8.50994V3.16737L18.3927 2.64813V3.57368H19.4211V1.46043L14.8241 2.12865V0H13.7957V8.51505H0V10.3044C0 15.2099 3.71759 19.2514 8.55619 19.7039V19.7038ZM1.02839 9.53862H27.5914V10.2996C27.5914 14.8194 24.0485 18.5161 19.5288 18.7065L19.0353 18.7272V23.9669L9.58409 23.9667V18.7322L9.09055 18.7116C4.5707 18.5162 1.02799 14.8244 1.02799 10.3046L1.02839 9.53862Z"
    fill="#2F3653"/>
</svg>
