<svg width="26" height="26" viewBox="0 0 26 26" fill="none" xmlns="http://www.w3.org/2000/svg">
<path d="M25.458 13.7582H25.133V11.8082C25.133 10.7791 24.3205 9.96655 23.2914 9.96655C22.2622 9.96655 21.4497 10.7791 21.4497 11.8082C21.4497 12.1332 21.6664 12.3499 21.9914 12.3499C22.3164 12.3499 22.533 12.1332 22.533 11.8082C22.533 11.3749 22.858 11.0499 23.2914 11.0499C23.7247 11.0499 24.0497 11.3749 24.0497 11.8082V13.7582H16.9542C16.9542 13.7041 17.0083 13.6499 17.0083 13.5957C17.0083 13.2707 16.7917 13.0541 16.4667 13.0541H14.7333C14.4083 13.0541 14.1917 13.2707 14.1917 13.5957C14.1917 13.6499 14.1917 13.7041 14.2458 13.7582H11.375C11.375 13.7041 11.4292 13.6499 11.4292 13.5957C11.4292 13.2707 11.2125 13.0541 10.8875 13.0541H9.15417C8.82917 13.0541 8.6125 13.2707 8.6125 13.5957C8.6125 13.6499 8.6125 13.7041 8.66667 13.7582H0.541667C0.216667 13.7582 0 13.9749 0 14.2999V25.4582C0 25.7832 0.216667 25.9999 0.541667 25.9999H25.4583C25.7833 25.9999 26 25.7832 26 25.4582V14.2999C26 13.9749 25.7833 13.7582 25.4583 13.7582H25.458ZM7.09583 19.5541H18.4708V24.9166H7.09583V19.5541ZM18.4708 18.4707H7.09583V14.8416H18.4708V18.4707ZM1.08302 14.8416H6.01219V24.9166H1.08302V14.8416ZM24.9164 24.9166H19.5539V14.8416H24.9164V24.9166Z" fill="white"/>
<path d="M4.82084 16.3044C4.49584 16.3044 4.27917 16.5211 4.27917 16.8461V18.1461C4.27917 18.4711 4.49584 18.6878 4.82084 18.6878C5.14584 18.6878 5.36251 18.4711 5.36251 18.1461V16.8461C5.36251 16.5753 5.14584 16.3044 4.82084 16.3044Z" fill="white"/>
<path d="M20.7452 18.6878C21.0702 18.6878 21.2869 18.4711 21.2869 18.1461V16.8461C21.2869 16.5211 21.0702 16.3044 20.7452 16.3044C20.4202 16.3044 20.2036 16.5211 20.2036 16.8461V18.1461C20.2036 18.4711 20.4202 18.6878 20.7452 18.6878Z" fill="white"/>
<path d="M13.8664 20.6377H12.133C11.808 20.6377 11.5914 20.8544 11.5914 21.1794C11.5914 21.5044 11.808 21.721 12.133 21.721H13.8664C14.1914 21.721 14.408 21.5044 14.408 21.1794C14.408 20.8544 14.1372 20.6377 13.8664 20.6377Z" fill="white"/>
<path d="M9.96638 17.8211C10.7247 17.8211 11.3747 17.1711 11.3747 16.4127C11.3747 15.6544 10.7247 15.0044 9.96638 15.0044C9.20804 15.0044 8.55804 15.6544 8.55804 16.4127C8.55804 17.1711 9.20804 17.8211 9.96638 17.8211ZM9.96638 16.1419C10.1289 16.1419 10.2914 16.3044 10.2914 16.4669C10.2914 16.6294 10.1289 16.7919 9.96638 16.7919C9.80388 16.7919 9.64138 16.6294 9.64138 16.4669C9.64138 16.3044 9.80388 16.1419 9.96638 16.1419Z" fill="white"/>
<path d="M15.5997 17.8211C16.358 17.8211 17.008 17.1711 17.008 16.4127C17.008 15.6544 16.358 15.0044 15.5997 15.0044C14.8413 15.0044 14.1913 15.6544 14.1913 16.4127C14.1913 17.1711 14.7872 17.8211 15.5997 17.8211ZM15.5997 16.1419C15.7622 16.1419 15.9247 16.3044 15.9247 16.4669C15.9247 16.6294 15.7622 16.7919 15.5997 16.7919C15.4372 16.7919 15.2747 16.6294 15.2747 16.4669C15.2747 16.3044 15.383 16.1419 15.5997 16.1419Z" fill="white"/>
<path d="M14.2997 0H11.2663C10.9413 0 10.7247 0.216667 10.7247 0.541667V2.49167L7.85385 5.30833C7.79968 5.3625 7.74551 5.41667 7.74551 5.47083C7.69135 5.525 7.69135 5.63333 7.69135 5.6875V7.36667C7.69135 7.69167 7.90801 7.90833 8.23301 7.90833H17.2785C17.6035 7.90833 17.8202 7.69167 17.8202 7.36667V5.6875C17.8202 5.63333 17.8202 5.525 17.766 5.47083C17.7119 5.41667 17.7119 5.3625 17.6577 5.30833L14.7869 2.49167V0.541667C14.841 0.216667 14.5702 0 14.2994 0H14.2997ZM8.82885 6.825V6.22917H16.791V6.825H8.82885ZM15.9788 5.14583H9.58718L11.6455 3.0875C11.7538 2.97917 11.808 2.87083 11.808 2.70833V1.08333H13.758V2.70833C13.758 2.87083 13.8122 2.97917 13.9205 3.0875L15.9788 5.14583Z" fill="white"/>
</svg>
