<svg width="21" height="21" viewBox="0 0 21 21" fill="none" xmlns="http://www.w3.org/2000/svg">
<path d="M6.40913 1.23401L6.10923 0.546575L6.40913 1.23401ZM6.40915 19.5742L6.70905 18.8868L6.40915 19.5742ZM14.399 19.5742L14.0991 18.8868L14.399 19.5742ZM19.7132 14.0641L19.0152 13.7894L19.7132 14.0641ZM19.7132 6.74416L19.0152 7.01877L19.7132 6.74416ZM14.0641 19.7132L14.3387 20.4111L14.0641 19.7132ZM14.699 0.546585C14.58 0.494668 14.4599 0.44484 14.3387 0.397147L13.7894 1.79298C13.8936 1.83398 13.9969 1.87681 14.0992 1.92144L14.699 0.546585ZM20.4111 6.46955C20.3633 6.34815 20.3134 6.22784 20.2614 6.10866L18.8866 6.70854C18.9313 6.811 18.9742 6.91442 19.0152 7.01877L20.4111 6.46955ZM20.2618 14.6986C20.3137 14.5797 20.3634 14.4597 20.4111 14.3387L19.0152 13.7894C18.9743 13.8935 18.9315 13.9967 18.8869 14.0989L20.2618 14.6986ZM14.3387 20.4111C14.4599 20.3634 14.5799 20.3136 14.6989 20.2617L14.0991 18.8868C13.9968 18.9314 13.8936 18.9743 13.7895 19.0152L14.3387 20.4111ZM6.10925 20.2617C6.22824 20.3136 6.34836 20.3634 6.46956 20.4111L7.01878 19.0152C6.9146 18.9743 6.81134 18.9314 6.70905 18.8868L6.10925 20.2617ZM0.397148 14.3387C0.44483 14.4599 0.494647 14.58 0.546552 14.6989L1.92141 14.0991C1.87679 13.9969 1.83397 13.8936 1.79298 13.7895L0.397148 14.3387ZM0.546688 6.10897C0.494735 6.22805 0.444873 6.34825 0.39715 6.46954L1.79298 7.01876C1.83401 6.91451 1.87687 6.81118 1.92153 6.7088L0.546688 6.10897ZM6.46953 0.397155C6.34833 0.444842 6.22822 0.494665 6.10923 0.546575L6.70903 1.92144C6.81132 1.87681 6.91458 1.83398 7.01875 1.79299L6.46953 0.397155ZM4.92403 4.92381C5.2253 4.62253 5.43266 4.26093 5.59072 3.92952C5.74408 3.60796 5.88376 3.23959 5.99908 2.96152C6.26852 2.3118 6.46465 2.02805 6.70903 1.92144L6.10923 0.546575C5.24364 0.924197 4.8602 1.79203 4.6135 2.38691C4.47074 2.73115 4.3682 3.00833 4.23682 3.28379C4.11015 3.54939 3.99024 3.73627 3.86337 3.86315L4.92403 4.92381ZM1.92153 6.7088C2.02816 6.46442 2.31193 6.2683 2.96168 5.99886C3.23976 5.88354 3.60814 5.74387 3.9297 5.59051C4.26113 5.43245 4.62275 5.22509 4.92403 4.92381L3.86337 3.86315C3.73649 3.99003 3.54961 4.10993 3.284 4.2366C3.00853 4.36798 2.73134 4.47052 2.3871 4.61327C1.7922 4.85996 0.924338 5.24338 0.546688 6.10897L1.92153 6.7088ZM2.65411 10.4041C2.65411 9.97786 2.54493 9.5754 2.42225 9.22919C2.30323 8.89331 2.14137 8.53393 2.02624 8.25576C1.75718 7.60567 1.69545 7.26665 1.79298 7.01876L0.39715 6.46954C0.0511246 7.34895 0.393912 8.23419 0.640261 8.8294C0.782838 9.17388 0.906408 9.4424 1.00839 9.7302C1.10671 10.0077 1.15411 10.2246 1.15411 10.4041H2.65411ZM1.79298 13.7895C1.69544 13.5416 1.75718 13.2025 2.02624 12.5525C2.14137 12.2743 2.30323 11.9149 2.42225 11.579C2.54493 11.2328 2.65411 10.8304 2.65411 10.4041H1.15411C1.15411 10.5836 1.10671 10.8006 1.00839 11.078C0.906407 11.3658 0.782837 11.6343 0.64026 11.9788C0.393911 12.574 0.0511226 13.4593 0.397148 14.3387L1.79298 13.7895ZM4.92402 15.8842C4.62273 15.5829 4.2611 15.3755 3.92966 15.2175C3.60808 15.0641 3.23968 14.9244 2.96159 14.8091C2.3118 14.5397 2.02803 14.3435 1.92141 14.0991L0.546552 14.6989C0.92419 15.5646 1.7921 15.948 2.38702 16.1947C2.73128 16.3375 3.00849 16.44 3.28397 16.5714C3.54959 16.6981 3.73648 16.818 3.86336 16.9448L4.92402 15.8842ZM6.70905 18.8868C6.46466 18.7802 6.26853 18.4964 5.99909 17.8466C5.88377 17.5685 5.7441 17.2001 5.59074 16.8785C5.43267 16.5471 5.22531 16.1855 4.92402 15.8842L3.86336 16.9448C3.99024 17.0717 4.11015 17.2586 4.23682 17.5242C4.3682 17.7997 4.47074 18.0769 4.61349 18.4212C4.86019 19.0161 5.24362 19.884 6.10925 20.2617L6.70905 18.8868ZM15.8842 15.8839C15.5829 16.1852 15.3755 16.5469 15.2174 16.8784C15.0641 17.2 14.9244 17.5684 14.8091 17.8465C14.5396 18.4964 14.3435 18.7802 14.0991 18.8868L14.6989 20.2617C15.5646 19.884 15.948 19.016 16.1947 18.421C16.3375 18.0768 16.44 17.7995 16.5714 17.524C16.6981 17.2584 16.818 17.0715 16.9448 16.9446L15.8842 15.8839ZM18.8869 14.0989C18.7803 14.3432 18.4966 14.5394 17.8467 14.8088C17.5686 14.9241 17.2002 15.0638 16.8786 15.2172C16.5471 15.3753 16.1855 15.5826 15.8842 15.8839L16.9448 16.9446C17.0717 16.8177 17.2586 16.6978 17.5243 16.5711C17.7998 16.4397 18.077 16.3372 18.4213 16.1944C19.0162 15.9477 19.8842 15.5643 20.2618 14.6986L18.8869 14.0989ZM18.1541 10.4041C18.1541 10.8304 18.2633 11.2328 18.386 11.579C18.505 11.9149 18.6668 12.2743 18.782 12.5525C19.051 13.2025 19.1128 13.5416 19.0152 13.7894L20.4111 14.3387C20.7571 13.4593 20.4143 12.574 20.168 11.9788C20.0254 11.6343 19.9018 11.3658 19.7998 11.078C19.7015 10.8006 19.6541 10.5836 19.6541 10.4041H18.1541ZM15.8842 4.92359C16.1855 5.22486 16.5471 5.43221 16.8785 5.59027C17.2 5.74363 17.5684 5.8833 17.8465 5.99861C18.4962 6.26804 18.7799 6.46415 18.8866 6.70854L20.2614 6.10866C19.8837 5.24312 19.0159 4.85971 18.421 4.61302C18.0768 4.47028 17.7996 4.36774 17.5242 4.23637C17.2586 4.1097 17.0717 3.9898 16.9448 3.86293L15.8842 4.92359ZM10.4041 18.1541C9.97787 18.1541 9.57541 18.2633 9.2292 18.386C8.89333 18.505 8.53394 18.6669 8.25578 18.782C7.60569 19.051 7.26667 19.1128 7.01878 19.0152L6.46956 20.4111C7.34897 20.7571 8.23421 20.4143 8.82942 20.168C9.1739 20.0254 9.44242 19.9018 9.73022 19.7998C10.0077 19.7015 10.2247 19.6541 10.4041 19.6541V18.1541ZM14.0992 1.92144C14.3436 2.02806 14.5397 2.31179 14.8091 2.96145C14.9245 3.23949 15.0642 3.60784 15.2175 3.92936C15.3756 4.26076 15.5829 4.62233 15.8842 4.92359L16.9448 3.86293C16.818 3.73605 16.6981 3.54918 16.5714 3.2836C16.44 3.00815 16.3375 2.731 16.1947 2.38679C15.948 1.79195 15.5645 0.924189 14.699 0.546585L14.0992 1.92144ZM10.4041 2.65411C10.8303 2.65411 11.2328 2.54493 11.579 2.42225C11.9149 2.30323 12.2743 2.14137 12.5524 2.02624C13.2025 1.75718 13.5416 1.69544 13.7894 1.79298L14.3387 0.397147C13.4593 0.0511225 12.574 0.393912 11.9788 0.640262C11.6343 0.782839 11.3658 0.90641 11.078 1.00839C10.8005 1.10671 10.5836 1.15411 10.4041 1.15411V2.65411ZM19.0152 7.01877C19.1128 7.26666 19.051 7.60568 18.782 8.25577C18.6668 8.53393 18.505 8.89332 18.386 9.22919C18.2633 9.5754 18.1541 9.97786 18.1541 10.4041H19.6541C19.6541 10.2246 19.7015 10.0077 19.7998 9.7302C19.9018 9.44241 20.0254 9.17389 20.168 8.82941C20.4143 8.2342 20.7571 7.34896 20.4111 6.46955L19.0152 7.01877ZM13.7895 19.0152C13.5416 19.1128 13.2025 19.051 12.5525 18.782C12.2743 18.6668 11.9149 18.505 11.579 18.386C11.2328 18.2633 10.8304 18.1541 10.4041 18.1541V19.6541C10.5836 19.6541 10.8006 19.7015 11.078 19.7998C11.3658 19.9018 11.6343 20.0254 11.9788 20.168C12.574 20.4143 13.4593 20.7571 14.3387 20.4111L13.7895 19.0152ZM10.4041 1.15411C10.2246 1.15411 10.0077 1.10671 9.73019 1.00839C9.44239 0.906411 9.17387 0.782841 8.82939 0.640264C8.23418 0.393916 7.34894 0.0511291 6.46953 0.397155L7.01875 1.79299C7.26664 1.69545 7.60566 1.75718 8.25575 2.02624C8.53392 2.14137 8.8933 2.30323 9.22918 2.42225C9.57539 2.54493 9.97785 2.65411 10.4041 2.65411V1.15411Z" fill="#CC3C3C"/>
<circle cx="8.20264" cy="8.20266" r="0.791538" transform="rotate(45 8.20264 8.20266)" fill="#CC3C3C"/>
<circle cx="12.6056" cy="12.6055" r="0.791538" transform="rotate(45 12.6056 12.6055)" fill="#CC3C3C"/>
<path d="M8.16527 12.6427L12.6429 8.16504" stroke="#CC3C3C" stroke-width="1.5" stroke-linecap="round" stroke-linejoin="round"/>
</svg>
