<svg width="24" height="24" viewBox="0 0 24 24" fill="none" xmlns="http://www.w3.org/2000/svg">
<path d="M10.875 0H0.74999C0.551108 0.000167408 0.360595 0.0793542 0.219977 0.219977C0.0793587 0.360599 0.000167143 0.551116 0 0.74999V10.875C0.0001674 11.0739 0.0793544 11.2644 0.219977 11.405C0.3606 11.5456 0.551116 11.6248 0.74999 11.625H10.875C11.0739 11.6248 11.2644 11.5456 11.405 11.405C11.5456 11.2644 11.6248 11.0738 11.625 10.875V0.74999C11.6248 0.551108 11.5456 0.360595 11.405 0.219977C11.2644 0.0793584 11.0738 0.000167143 10.875 0V0ZM10.875 10.875L0.74999 10.8755V0.750072H10.875V10.875Z" fill="#2F3653"/>
<path d="M2.30485 6.21041L5.41464 9.32021C5.63613 9.53566 5.98884 9.53566 6.21016 9.32021L9.31995 6.21041C9.53926 5.9906 9.53926 5.63467 9.31995 5.4149L6.21016 2.30511C5.99035 2.0858 5.63441 2.0858 5.41464 2.30511L2.30485 5.4149C2.08554 5.63471 2.08554 5.99064 2.30485 6.21041ZM5.81244 2.96802L8.65708 5.81266L5.81244 8.6573L2.9678 5.81266L5.81244 2.96802Z" fill="#2F3653"/>
<path d="M10.875 12.3748H0.74999C0.551108 12.3749 0.360595 12.4541 0.219977 12.5947C0.0793587 12.7354 0.000167143 12.9259 0 13.1247V23.2497C0.0001674 23.4486 0.0793544 23.6391 0.219977 23.7797C0.3606 23.9204 0.551116 23.9996 0.74999 23.9997H10.875C11.0739 23.9996 11.2644 23.9204 11.405 23.7797C11.5456 23.6391 11.6248 23.4486 11.625 23.2497V13.1247C11.6248 12.9259 11.5456 12.7354 11.405 12.5947C11.2644 12.4541 11.0738 12.3749 10.875 12.3748ZM10.875 23.2497L0.74999 23.2502V13.1248H10.875V23.2497Z" fill="#2F3653"/>
<path d="M2.4377 2.24976C2.4377 2.45684 2.26979 2.62475 2.06271 2.62475C1.85562 2.62475 1.68771 2.45684 1.68771 2.24976C1.68771 2.04267 1.85562 1.87476 2.06271 1.87476C2.26979 1.87476 2.4377 2.04267 2.4377 2.24976Z" fill="#2F3653"/>
<path d="M9.74998 2.24976C9.74998 2.45684 9.58206 2.62475 9.37498 2.62475C9.16789 2.62475 8.99998 2.45684 8.99998 2.24976C8.99998 2.04267 9.16789 1.87476 9.37498 1.87476C9.58206 1.87476 9.74998 2.04267 9.74998 2.24976Z" fill="#2F3653"/>
<path d="M2.4377 9.37476C2.4377 9.58184 2.26979 9.74975 2.06271 9.74975C1.85562 9.74975 1.68771 9.58184 1.68771 9.37476C1.68771 9.16767 1.85562 8.99976 2.06271 8.99976C2.26979 8.99976 2.4377 9.16767 2.4377 9.37476Z" fill="#2F3653"/>
<path d="M9.74998 9.37476C9.74998 9.58184 9.58206 9.74975 9.37498 9.74975C9.16789 9.74975 8.99998 9.58184 8.99998 9.37476C8.99998 9.16767 9.16789 8.99976 9.37498 8.99976C9.58206 8.99976 9.74998 9.16767 9.74998 9.37476Z" fill="#2F3653"/>
<path d="M6.1877 5.81225C6.1877 6.01934 6.01978 6.18725 5.8127 6.18725C5.60561 6.18725 5.4377 6.01934 5.4377 5.81225C5.4377 5.60517 5.60561 5.43726 5.8127 5.43726C6.01978 5.43726 6.1877 5.60517 6.1877 5.81225Z" fill="#2F3653"/>
<path d="M23.25 -0.000244141H13.125C12.9261 -7.67323e-05 12.7356 0.07911 12.595 0.219733C12.4543 0.360355 12.3751 0.550872 12.375 0.749746V10.8747C12.3751 11.0736 12.4543 11.2641 12.595 11.4047C12.7356 11.5454 12.9261 11.6246 13.125 11.6247H23.25C23.4488 11.6246 23.6393 11.5454 23.78 11.4047C23.9206 11.2641 23.9998 11.0736 23.9999 10.8747V0.749746C23.9998 0.550864 23.9206 0.360351 23.78 0.219733C23.6393 0.0791143 23.4488 -7.6998e-05 23.25 -0.000244141V-0.000244141ZM13.125 0.749755H18.6072L13.125 6.23203V0.749755ZM23.25 10.8747L17.8131 10.8749L23.25 5.28549V10.8747ZM23.25 4.21003L16.767 10.8752L13.125 10.8753V7.29257L19.6675 0.750008H23.2498L23.25 4.21003Z" fill="#2F3653"/>
<path d="M22.0585 2.12878C22.158 2.12895 22.2534 2.08944 22.3237 2.01896L22.39 1.95266C22.5356 1.80601 22.5355 1.56929 22.3893 1.42299C22.243 1.27684 22.0063 1.27667 21.8597 1.42232L21.7934 1.48862C21.6862 1.59593 21.6541 1.75714 21.7122 1.89727C21.7703 2.03739 21.9069 2.1288 22.0585 2.1288L22.0585 2.12878Z" fill="#2F3653"/>
<path d="M17.4231 5.85947L17.2982 5.98436C17.2277 6.05467 17.1882 6.1501 17.1882 6.24954C17.1882 6.34898 17.2277 6.4444 17.2981 6.51472C17.3684 6.58503 17.4638 6.62454 17.5632 6.62454C17.6627 6.62454 17.7581 6.58503 17.8284 6.51455L17.9533 6.38966V6.38983C18.0996 6.24334 18.0996 6.00595 17.9533 5.85964C17.8068 5.71316 17.5694 5.71316 17.4231 5.85947L17.4231 5.85947Z" fill="#2F3653"/>
<path d="M15.1753 8.10717L15.0504 8.23206C14.9799 8.30237 14.9404 8.3978 14.9404 8.49724C14.9404 8.59668 14.9799 8.69211 15.0502 8.76242C15.1205 8.83273 15.2159 8.87224 15.3154 8.87224C15.4148 8.87224 15.5102 8.83273 15.5806 8.76225L15.7054 8.63736C15.8513 8.49088 15.8509 8.25399 15.7048 8.10786C15.5586 7.96173 15.3217 7.96138 15.1753 8.10719L15.1753 8.10717Z" fill="#2F3653"/>
<path d="M20.9348 3.25244C21.0343 3.25261 21.1297 3.2131 21.1998 3.14262L21.3247 3.01773C21.4705 2.87125 21.4702 2.63436 21.324 2.48823C21.1779 2.3421 20.941 2.34175 20.7945 2.48756L20.6697 2.61245C20.5623 2.7196 20.5304 2.88098 20.5883 3.0211C20.6464 3.16106 20.7832 3.25246 20.9348 3.25246L20.9348 3.25244Z" fill="#2F3653"/>
<path d="M19.5458 4.26682C19.6161 4.33713 19.7116 4.37664 19.811 4.37664C19.9104 4.37664 20.0059 4.33713 20.0762 4.26682L20.2011 4.14193C20.3469 3.99528 20.3465 3.75839 20.2004 3.61226C20.0542 3.46612 19.8174 3.46577 19.6707 3.61159L19.5458 3.73648C19.4755 3.80679 19.436 3.90221 19.436 4.00166C19.436 4.1011 19.4755 4.19652 19.5458 4.26683L19.5458 4.26682Z" fill="#2F3653"/>
<path d="M16.299 6.98301L16.1741 7.1079C16.1038 7.17821 16.0643 7.27364 16.0643 7.37308C16.0643 7.47252 16.1038 7.56794 16.1741 7.63826C16.2444 7.70857 16.3398 7.74808 16.4393 7.74808C16.5387 7.74808 16.6341 7.70857 16.7044 7.63826L16.8293 7.51337C16.975 7.36688 16.9746 7.13 16.8285 6.98387C16.6823 6.83772 16.4454 6.83738 16.299 6.98303L16.299 6.98301Z" fill="#2F3653"/>
<path d="M18.5468 4.73559L18.4219 4.86048V4.86032C18.2754 5.0068 18.2754 5.24419 18.4219 5.39067C18.5684 5.53716 18.8058 5.53716 18.9523 5.39067L19.0772 5.26578H19.077C19.2235 5.1193 19.2235 4.88191 19.077 4.7356C18.9307 4.58911 18.6933 4.58911 18.5468 4.7356L18.5468 4.73559Z" fill="#2F3653"/>
<path d="M14.0511 9.2308L13.9848 9.2971C13.9145 9.36741 13.875 9.46284 13.875 9.56228C13.875 9.66172 13.9145 9.75715 13.9848 9.82746C14.0551 9.89777 14.1506 9.93728 14.25 9.93728C14.3494 9.93728 14.4449 9.89777 14.5152 9.82746L14.5815 9.76116C14.7271 9.61451 14.7268 9.37779 14.5806 9.23166C14.4345 9.08553 14.1978 9.08518 14.0511 9.23082L14.0511 9.2308Z" fill="#2F3653"/>
<path d="M2.99998 16.8693V19.5055V19.5053C3.00132 19.7054 3.10846 19.8899 3.2814 19.9901C3.2814 19.9901 5.51464 21.2941 5.51584 21.2949C5.69949 21.4007 5.92566 21.4007 6.10915 21.2948L8.34359 19.9902C8.5167 19.8897 8.62367 19.7054 8.62501 19.5054V16.8693C8.62367 16.6692 8.51653 16.4848 8.34359 16.3845L6.10915 15.0797C5.92567 14.9731 5.69917 14.9731 5.51584 15.0799L3.2814 16.3845C3.1083 16.4849 3.00132 16.6693 2.99998 16.8693V16.8693ZM3.74998 16.9793L5.81248 15.7749L7.87498 16.9793V19.3953L5.81248 20.5997L3.74998 19.3953V16.9793Z" fill="#2F3653"/>
<path d="M23.25 12.3748H13.125C12.9261 12.3749 12.7356 12.4541 12.595 12.5947C12.4543 12.7354 12.3751 12.9259 12.375 13.1247V23.2497C12.3751 23.4486 12.4543 23.6391 12.595 23.7797C12.7356 23.9204 12.9261 23.9996 13.125 23.9997H23.25C23.4488 23.9996 23.6393 23.9204 23.78 23.7797C23.9206 23.6391 23.9998 23.4486 23.9999 23.2497V13.1247C23.9998 12.9259 23.9206 12.7354 23.78 12.5947C23.6393 12.4541 23.4488 12.3749 23.25 12.3748ZM23.25 23.2497L13.125 23.2502V13.1248H23.25V23.2497Z" fill="#2F3653"/>
<path d="M17.9798 20.5569C18.3562 20.6798 18.7677 20.6264 19.1002 20.4116C19.702 20.0242 19.9863 19.2529 20.0469 18.71C20.157 17.7225 19.675 16.7974 18.7245 16.1716C18.1121 15.7686 17.531 15.6496 17.0881 15.8373C16.8254 15.9484 16.4852 16.2227 16.3568 16.8977V16.8978C16.3036 17.2167 16.2979 17.5418 16.3398 17.8624C16.4645 18.9469 16.9608 20.2241 17.9799 20.5569L17.9798 20.5569ZM17.0935 17.0381C17.1391 16.7996 17.2449 16.4999 17.5375 16.4999C17.8179 16.5275 18.0858 16.6305 18.3121 16.7982C18.7273 17.0714 19.408 17.6724 19.3015 18.6268C19.2474 19.1108 18.9976 19.5854 18.6943 19.7808L18.6941 19.781C18.5535 19.8789 18.3739 19.9023 18.2127 19.8439C17.5738 19.6353 17.1859 18.6555 17.0848 17.7767H17.0847C17.0515 17.5313 17.0545 17.2826 17.0935 17.0381L17.0935 17.0381Z" fill="#2F3653"/>
<path d="M14.2753 18.3089C14.4321 18.4493 14.6961 18.6 14.903 18.5225C15.1088 18.4455 15.0729 18.1833 14.9615 18.0243V18.0244C14.83 17.8565 14.6168 17.7746 14.4068 17.8118C14.2098 17.8331 14.0092 17.9265 14.1457 18.1582C14.181 18.2146 14.2247 18.2655 14.2753 18.3089H14.2753Z" fill="#2F3653"/>
<path d="M21.4435 17.7638C21.3387 17.7228 21.2205 17.7359 21.127 17.7985C21.0213 17.8986 21.0866 18.0724 21.1417 18.18C21.2376 18.3677 21.4298 18.603 21.6506 18.6052C21.8703 18.6074 21.9312 18.3499 21.8843 18.1614L21.8845 18.1616C21.8224 17.9577 21.6528 17.8047 21.4435 17.7638L21.4435 17.7638Z" fill="#2F3653"/>
<path d="M17.7214 14.4087C17.8173 14.5963 18.0095 14.8317 18.2303 14.8339C18.4501 14.8361 18.5109 14.5786 18.464 14.3901V14.3903C18.4019 14.1862 18.2323 14.0332 18.0231 13.9923C17.8315 13.9413 17.6111 13.9562 17.6549 14.2215C17.6675 14.287 17.6899 14.3499 17.7214 14.4087L17.7214 14.4087Z" fill="#2F3653"/>
<path d="M18.3535 21.541C18.1327 21.5432 17.9405 21.7788 17.8446 21.9663C17.7915 22.0699 17.7216 22.2522 17.8203 22.3515C17.9012 22.433 18.0477 22.4089 18.1464 22.3825L18.1463 22.3826C18.3555 22.3418 18.5253 22.1888 18.5872 21.9847C18.6341 21.7963 18.5733 21.5389 18.3535 21.541L18.3535 21.541Z" fill="#2F3653"/>
<path d="M14.6725 15.3743C14.9868 15.3566 15.2153 14.9936 15.3157 14.7082C15.3496 14.6173 15.3693 14.5219 15.3745 14.4251C15.3859 14.0275 15.0685 14.0195 14.8055 14.108H14.8057C14.6627 14.1457 14.5339 14.2246 14.4358 14.3351C14.3377 14.4455 14.2745 14.5826 14.254 14.729C14.2237 15.0126 14.36 15.3918 14.6726 15.3744L14.6725 15.3743Z" fill="#2F3653"/>
<path d="M14.8933 21.0036C14.4906 21.0602 14.2312 21.618 14.2507 21.9866C14.2713 22.3733 14.5971 22.3529 14.8596 22.2436C15.0002 22.1981 15.1241 22.1119 15.2159 21.996C15.3074 21.88 15.3627 21.7395 15.3746 21.5922C15.3828 21.3145 15.2123 20.9587 14.8933 21.0036L14.8933 21.0036Z" fill="#2F3653"/>
<path d="M21.7024 15.2806C22.0149 15.298 22.1514 14.9188 22.1211 14.6354L22.1209 14.6352C22.1005 14.4889 22.0372 14.3518 21.9391 14.2413C21.841 14.1308 21.7123 14.052 21.5693 14.0143C21.3063 13.9257 20.9889 13.9338 21.0003 14.3314H21.0005C21.0056 14.4281 21.0254 14.5236 21.059 14.6145C21.1597 14.8999 21.388 15.2628 21.7024 15.2806L21.7024 15.2806Z" fill="#2F3653"/>
<path d="M21.5151 22.1504C21.7774 22.2595 22.1034 22.2801 22.124 21.8934C22.1265 21.7988 22.1139 21.7044 22.0866 21.6136C22.0068 21.3279 21.802 20.9554 21.4813 20.9104C21.1624 20.8655 20.9918 21.2212 21 21.499H21.0002C21.012 21.6463 21.0673 21.7867 21.1589 21.9026C21.2506 22.0186 21.3745 22.1048 21.5151 22.1503L21.5151 22.1504Z" fill="#2F3653"/>
<path d="M15 2.43726C15 2.64434 14.8321 2.81225 14.625 2.81225C14.4179 2.81225 14.25 2.64434 14.25 2.43726C14.25 2.23017 14.4179 2.06226 14.625 2.06226C14.8321 2.06226 15 2.23017 15 2.43726Z" fill="#2F3653"/>
<path d="M21.9377 9.37476C21.9377 9.58184 21.7698 9.74975 21.5627 9.74975C21.3556 9.74975 21.1877 9.58184 21.1877 9.37476C21.1877 9.16767 21.3556 8.99976 21.5627 8.99976C21.7698 8.99976 21.9377 9.16767 21.9377 9.37476Z" fill="#2F3653"/>
<path d="M3.16755 14.9604L3.91755 14.5854C4.00661 14.5409 4.07425 14.4629 4.10572 14.3684C4.13719 14.2742 4.12983 14.1711 4.0853 14.0822C4.04093 13.9931 3.96292 13.9255 3.8685 13.894C3.77408 13.8625 3.67112 13.8699 3.58206 13.9144L2.83206 14.2894C2.64691 14.3822 2.57174 14.6073 2.66432 14.7926C2.7589 14.9756 2.98206 15.0501 3.16754 14.9604L3.16755 14.9604Z" fill="#2F3653"/>
<path d="M7.70741 14.5854L8.45741 14.9604C8.6429 15.0501 8.86606 14.9756 8.96063 14.7926C9.05321 14.6073 8.97804 14.3822 8.79289 14.2894L8.04289 13.9144C7.85757 13.8218 7.6324 13.8968 7.53966 14.0822C7.44708 14.2675 7.52208 14.4927 7.70741 14.5854Z" fill="#2F3653"/>
<path d="M8.8324 21.2269L8.08241 21.6019C7.89725 21.6946 7.82208 21.9198 7.91466 22.1051C8.00924 22.2883 8.23241 22.3626 8.41789 22.2729L9.16789 21.8979C9.35304 21.8051 9.42804 21.5799 9.33546 21.3946C9.24288 21.2095 9.01772 21.1343 8.83241 21.2269H8.8324Z" fill="#2F3653"/>
<path d="M2.6447 21.8977L3.3947 22.2727C3.48376 22.3172 3.58672 22.3245 3.68114 22.2931C3.77555 22.2616 3.85357 22.194 3.89793 22.1049C3.94247 22.016 3.94983 21.9129 3.91836 21.8186C3.88688 21.7242 3.81925 21.6462 3.73019 21.6017L2.98019 21.2267C2.79487 21.1341 2.5697 21.2091 2.47696 21.3944C2.38438 21.5797 2.45938 21.8049 2.64471 21.8976L2.6447 21.8977Z" fill="#2F3653"/>
<path d="M1.87498 18.9377C2.08207 18.9377 2.24998 18.7698 2.24998 18.5627V17.8127C2.24998 17.6057 2.08207 17.4377 1.87498 17.4377C1.6679 17.4377 1.49998 17.6057 1.49998 17.8127V18.5627C1.49998 18.7698 1.6679 18.9377 1.87498 18.9377Z" fill="#2F3653"/>
<path d="M9.74998 18.9377C9.95706 18.9377 10.125 18.7698 10.125 18.5627V17.8127C10.125 17.6057 9.95706 17.4377 9.74998 17.4377C9.54289 17.4377 9.37498 17.6057 9.37498 17.8127V18.5627C9.37498 18.7698 9.54289 18.9377 9.74998 18.9377Z" fill="#2F3653"/>
</svg>
