<svg width="21" height="21" viewBox="0 0 21 21" fill="none" xmlns="http://www.w3.org/2000/svg">
<path d="M10.5036 1.81398e-05C10.4391 -0.0006284 10.3756 0.0160201 10.3197 0.0480256L4.10493 3.56263H4.10509C3.99146 3.62697 3.92115 3.74738 3.92115 3.87798H3.9205V10.9467C3.9003 11.0952 3.97368 11.2409 4.10509 11.3129L10.3199 14.8276H10.3197C10.4307 14.8906 10.5667 14.8906 10.6776 14.8276L16.8919 11.3129H16.8921C17.0309 11.2381 17.1053 11.0818 17.0758 10.9268V3.87797C17.0758 3.74753 17.0057 3.62695 16.8921 3.56262L10.6777 0.048009L10.6776 0.0481706C10.6245 0.0176217 10.5647 0.00113575 10.5036 0.000163359L10.5036 1.81398e-05ZM10.4986 0.780086L15.9777 3.87814L10.4986 6.9783L5.01959 3.87814L10.4986 0.780086ZM4.64552 4.49898L10.1382 7.60543V13.8941L4.64552 10.7869V4.49898ZM16.3521 4.49898V10.7869L10.8623 13.8925V7.60299L16.3521 4.49898ZM2.98579 12.3344C2.94086 12.3343 2.89625 12.3423 2.85422 12.3585C1.98575 12.6666 1.30006 13.0227 0.806897 13.4334C0.313738 13.8441 0 14.3345 0 14.8766C0 15.4779 0.374839 16.0018 0.938483 16.4288C1.50211 16.8559 2.27764 17.2177 3.22047 17.52C5.09193 18.1197 7.63026 18.4812 10.4358 18.4867L9.62193 19.4973C9.49634 19.6531 9.52091 19.8812 9.67673 20.0067C9.83254 20.1323 10.0608 20.1078 10.1862 19.952L11.4718 18.3537C11.5788 18.221 11.5788 18.0317 11.4718 17.899L10.1862 16.301C10.1109 16.2033 9.99093 16.1508 9.86808 16.1616C9.73328 16.1731 9.61609 16.2588 9.56437 16.3837C9.51264 16.5087 9.53479 16.6522 9.62191 16.7556L10.4324 17.762C7.69099 17.7563 5.20906 17.3968 3.44009 16.8298C2.54832 16.5441 1.83892 16.2022 1.37663 15.8518C0.914172 15.5015 0.724572 15.1726 0.724572 14.8766C0.724572 14.614 0.876029 14.3171 1.26979 13.9893C1.66354 13.6613 2.28275 13.3293 3.09776 13.0401C3.26602 12.9844 3.36915 12.815 3.34135 12.6399C3.31371 12.4649 3.16338 12.3356 2.98607 12.3344L2.98579 12.3344ZM18.0011 12.3344H18.0013C17.8257 12.3401 17.6796 12.4708 17.6546 12.6446C17.6295 12.8184 17.7326 12.9852 17.8994 13.0401C18.7144 13.3291 19.3345 13.6613 19.7282 13.9891C20.1219 14.3169 20.2755 14.614 20.2755 14.8766C20.2755 15.0985 20.1705 15.3371 19.9071 15.6036C19.6438 15.8702 19.2263 16.1462 18.6774 16.3998C17.5796 16.9072 15.9638 17.3252 14.0106 17.5596C13.812 17.5832 13.6701 17.7634 13.6938 17.9619C13.7174 18.1605 13.8975 18.3023 14.0961 18.2787C16.1027 18.038 17.7778 17.6139 18.9818 17.0573C19.5839 16.779 20.0698 16.468 20.4223 16.1111C20.7747 15.7544 21 15.3321 21 14.8764C21 14.3343 20.6855 13.8437 20.1924 13.4332C19.6993 13.0225 19.0107 12.6664 18.1424 12.3583V12.3584C18.0973 12.341 18.0491 12.3329 18.001 12.3344L18.0011 12.3344Z" fill="black"/>
</svg>
