<svg xmlns="http://www.w3.org/2000/svg" viewBox="0 0 456.37 443.51">
  <path d="M10.67,72.68H77.05a62,62,0,0,0,122.08,0H445.7a10.67,10.67,0,1,0,0-21.33H199.12A62,62,0,0,0,77,51.34H10.67a10.67,10.67,0,0,0,0,21.34ZM138.06,21.34A40.62,40.62,0,1,1,97.45,62,40.65,40.65,0,0,1,138.06,21.34ZM445.7,211.09H398.55a62,62,0,0,0-122.08,0H10.68a10.67,10.67,0,1,0,0,21.34H276.41a62,62,0,0,0,122.08,0h47.15a10.67,10.67,0,0,0,.06-21.34ZM337.47,262.37a40.62,40.62,0,1,1,40.62-40.61A40.65,40.65,0,0,1,337.47,262.37ZM445.7,370.83H199.12a62,62,0,0,0-122.08,0H10.67a10.67,10.67,0,0,0,0,21.34H77.05a62,62,0,0,0,122.08,0H445.7a10.67,10.67,0,0,0,0-21.34ZM138.06,422.17a40.61,40.61,0,1,1,40.62-40.61A40.65,40.65,0,0,1,138.06,422.17Z"/>
</svg>
