<svg width="14" height="12" viewBox="0 0 14 12" fill="none" xmlns="http://www.w3.org/2000/svg">
<path opacity="0.2" d="M7 12C6.86458 12 6.75 11.9532 6.65625 11.8594L1.78125 7.15627C1.72917 7.1146 1.65755 7.04689 1.56641 6.95314C1.47526 6.85939 1.33073 6.68882 1.13281 6.44142C0.934896 6.19403 0.757812 5.94012 0.601562 5.6797C0.445312 5.41928 0.30599 5.10418 0.183594 4.73439C0.0611979 4.36459 0 4.00522 0 3.65626C0 2.51042 0.330729 1.61459 0.992188 0.968752C1.65365 0.322918 2.56771 0 3.73438 0C4.05729 0 4.38672 0.0559897 4.72266 0.167969C5.05859 0.279949 5.37109 0.430991 5.66016 0.621095C5.94922 0.8112 6.19792 0.989586 6.40625 1.15625C6.61458 1.32292 6.8125 1.5 7 1.6875C7.1875 1.5 7.38542 1.32292 7.59375 1.15625C7.80208 0.989586 8.05078 0.8112 8.33984 0.621095C8.62891 0.430991 8.94141 0.279949 9.27734 0.167969C9.61328 0.0559897 9.94271 0 10.2656 0C11.4323 0 12.3464 0.322918 13.0078 0.968752C13.6693 1.61459 14 2.51042 14 3.65626C14 4.8073 13.4036 5.97918 12.2109 7.17189L7.34375 11.8594C7.25 11.9532 7.13542 12 7 12Z" fill="black"/>
</svg>
