<svg width="36" height="36" viewBox="0 0 36 36" fill="none" xmlns="http://www.w3.org/2000/svg">
<path d="M22 18C22 20.2091 20.2091 22 18 22C15.7909 22 14 20.2091 14 18C14 15.7909 15.7909 14 18 14C20.2091 14 22 15.7909 22 18Z" fill="#9F111B"/>
<path d="M36 18C36 20.2091 34.2091 22 32 22C29.7909 22 28 20.2091 28 18C28 15.7909 29.7909 14 32 14C34.2091 14 36 15.7909 36 18Z" fill="#9F111B"/>
<path d="M8 18C8 20.2091 6.2091 22 4 22C1.7909 22 0 20.2091 0 18C0 15.7909 1.7909 14 4 14C6.2091 14 8 15.7909 8 18Z" fill="#9F111B"/>
</svg>
