<svg width="26" height="26" viewBox="0 0 26 26" fill="none" xmlns="http://www.w3.org/2000/svg">
<path d="M22.4161 23.9577C19.8103 26.5635 13.1371 24.115 7.51103 18.489C1.88497 12.8629 -0.563479 6.1897 2.04227 3.58393L3.75796 1.86824C4.9424 0.683808 6.89406 0.715117 8.11711 1.93818L10.7746 4.59563C11.9976 5.81869 12.0289 7.77035 10.8445 8.95478L10.476 9.32329C9.83649 9.96279 9.77393 10.9944 10.3681 11.7145C10.9413 12.409 11.5592 13.1009 12.2292 13.7708C12.8991 14.4408 13.591 15.0587 14.2855 15.6319C15.0056 16.2261 16.0372 16.1635 16.6767 15.524L17.0452 15.1555C18.2297 13.9711 20.1813 14.0024 21.4044 15.2254L24.0618 17.8829C25.2849 19.1059 25.3162 21.0576 24.1318 22.242L22.4161 23.9577Z" stroke="black"/>
</svg>
