<svg width="26" height="24" viewBox="0 0 26 24" fill="none" xmlns="http://www.w3.org/2000/svg">
<path d="M12.6597 2.74133V22.9891M12.6597 2.74133L13.9798 2.24592C16.984 1.11855 20.3353 1.11855 23.3395 2.24592C24.1368 2.54513 24.6597 3.26962 24.6597 4.07528V20.6961C24.6597 21.8024 23.4687 22.5588 22.3738 22.148C19.9896 21.2532 17.3298 21.2532 14.9455 22.148L12.6761 22.9996C12.6682 23.0025 12.6597 22.9971 12.6597 22.9891M12.6597 2.74133L11.3395 2.24592C8.33532 1.11855 4.98401 1.11855 1.97984 2.24592C1.1825 2.54513 0.659668 3.26962 0.659668 4.07528V20.6961C0.659668 21.8024 1.85063 22.5588 2.94549 22.148C5.32977 21.2532 7.98956 21.2532 10.3738 22.148L12.6432 22.9996C12.6511 23.0025 12.6597 22.9971 12.6597 22.9891" stroke="black"/>
</svg>
