<svg width="36" height="29" viewBox="0 0 36 29" fill="none" xmlns="http://www.w3.org/2000/svg">
<path d="M3.79202 6.50088C3.58733 6.50088 3.40194 6.33963 3.35164 6.09962C3.09222 4.86103 3.6003 3.94308 4.04796 3.13358C4.5532 2.22039 4.84584 1.61647 4.51113 0.737359C4.40989 0.472051 4.51397 0.161666 4.74303 0.0444022C4.97302 -0.0717644 5.24004 0.0477007 5.34127 0.313013C5.88922 1.75245 5.29192 2.83269 4.81199 3.69979C4.41147 4.4239 4.06536 5.04945 4.23336 5.85164C4.2922 6.1338 4.14319 6.41781 3.89959 6.48633C3.86384 6.49622 3.82746 6.50098 3.79203 6.50098L3.79202 6.50088Z" fill="#9F111B"/>
<path d="M20.6874 6.50082C20.4827 6.50082 20.2973 6.33958 20.247 6.09956C19.9876 4.86097 20.4956 3.94303 20.9433 3.13353C21.4485 2.22033 21.7415 1.61641 21.4065 0.737304C21.3052 0.471996 21.4093 0.161612 21.6387 0.0443475C21.868 -0.0718191 22.1357 0.0480124 22.2363 0.312958C22.7846 1.7524 22.1873 2.83264 21.707 3.69974C21.3062 4.42385 20.9604 5.0494 21.1284 5.85158C21.1872 6.13375 21.0382 6.41775 20.7946 6.48627C20.7589 6.49616 20.7225 6.50093 20.6874 6.50093L20.6874 6.50082Z" fill="#9F111B"/>
<path d="M12.2393 6.50088C12.0346 6.50088 11.8492 6.33963 11.7989 6.09962C11.5395 4.86103 12.0476 3.94308 12.4952 3.13358C13.0005 2.22039 13.2931 1.61647 12.9584 0.737359C12.8571 0.472051 12.9612 0.161666 13.1903 0.0444022C13.4196 -0.0717644 13.6873 0.0477007 13.7885 0.313013C14.3365 1.75245 13.7392 2.83269 13.2592 3.69979C12.8587 4.4239 12.5126 5.04945 12.6806 5.85164C12.7394 6.1338 12.5904 6.41781 12.3468 6.48633C12.3111 6.49622 12.2747 6.50098 12.2393 6.50098L12.2393 6.50088Z" fill="#9F111B"/>
<path d="M12.7277 26.2858C5.71011 26.2858 0.000167847 19.6721 0.000167847 11.5433C0.000167847 11.2535 0.203275 11.0178 0.453841 11.0178H25.0018C25.2527 11.0178 25.4555 11.2531 25.4555 11.5433C25.4552 19.6723 19.7454 26.2858 12.7272 26.2858H12.7277ZM0.916162 12.0687C1.15533 19.3757 6.3624 25.2351 12.7277 25.2351C19.0937 25.2351 24.3003 19.3759 24.5401 12.0687H0.916162Z" fill="#9F111B"/>
<path d="M25.0009 12.0687C24.7886 12.0687 24.5994 11.8958 24.557 11.6459C24.508 11.3611 24.6678 11.0848 24.9129 11.028L35.4578 8.5985C35.7058 8.5439 35.9422 8.72676 35.9912 9.01149C36.0402 9.29621 35.8805 9.57253 35.6353 9.62932L25.0904 12.0588C25.0597 12.0658 25.03 12.0687 25.0009 12.0687L25.0009 12.0687Z" fill="#9F111B"/>
<path d="M25.0017 28.8796H0.453673C0.203431 28.8796 0 28.6447 0 28.3541C0 28.0635 0.203107 27.8286 0.453673 27.8286H25.0017C25.2525 27.8286 25.4553 28.0635 25.4553 28.3541C25.455 28.6447 25.2522 28.8796 25.0013 28.8796H25.0017Z" fill="#9F111B"/>
</svg>
