<svg width="115" height="41" viewBox="0 0 115 41"  fill="#9F111B" xmlns="http://www.w3.org/2000/svg">
<path d="M57.3965 3.40874C57.3965 3.40874 23.5326 3.53792 14.1113 0V4.12637C14.1113 4.12637 24.3749 5.10056 57.3965 5.10056C90.4181 5.10056 100.68 4.12637 100.68 4.12637V0C91.2569 3.53792 57.3965 3.40874 57.3965 3.40874Z"/>
<path d="M57.3965 37.5914C57.3965 37.5914 91.2569 37.4622 100.68 41.0001V36.8738C100.68 36.8738 90.4145 35.9014 57.3965 35.9014C24.3785 35.9014 14.1113 36.8738 14.1113 36.8738V41.0001C23.5326 37.4622 57.3965 37.5914 57.3965 37.5914Z"/>
<path d="M5.4218 14.2703V26.3552L7.47416 27.1428L7.22788 28.9099H0.244499L0 27.1661L2.05236 26.3552V14.2703L0 13.4342L0.267699 11.7155H7.22788L7.47416 13.4558L5.4218 14.2703ZM10.8864 28.9099L11.1059 27.5841L6.4462 20.5585V19.256L11.3076 14.2703L9.76924 13.4558L10.0619 11.7119H15.9513L16.2154 13.4558C15.0377 13.7784 13.9563 14.3857 13.0655 15.2247L8.74484 19.6489L10.4046 20.4365L14.4076 26.3731L16.5331 27.1589L16.2654 28.9027L10.8864 28.9099Z"/>
<path d="M25.0317 11.7154L27.6944 11.3027L33.1644 26.373L35.306 27.1588L35.0383 28.9026H27.9389L27.6622 27.1659L29.5986 26.373L28.4993 23.4253H22.7883L21.614 26.373L23.9145 27.1426L23.67 28.9098H17.5593L17.2898 27.1659L19.4153 26.373L25.0317 11.7154ZM27.7925 21.5164L26.2541 17.3398V14.5321L23.5183 21.5092L27.7925 21.5164Z"/>
<path d="M36.1198 27.1661L38.1471 26.3731V14.2703L36.0948 13.4558L36.3393 11.7119H41.4184L48.2822 21.9058L49.1603 24.4606V14.2703L47.1329 13.4558L47.3774 11.7119H52.826L53.0687 13.4558L51.0413 14.2703V28.9099L49.014 29.3279L40.0264 15.8419V26.4054L42.0538 27.1661L41.7843 28.9099H36.3875L36.1198 27.1661Z"/>
<path d="M58.0015 27.1659H65.8647L67.1835 23.4809L68.9164 23.7518V28.9097H55.5583L54.4607 27.1659L63.7124 14.9321L65.572 13.4556H58.7153L57.4661 16.9917L55.7332 16.7226V11.7153H67.6012L68.9164 13.4556L59.8325 25.8598L58.0015 27.1659Z"/>
<path d="M70.5048 11.7153H77.49L77.7577 13.4556L75.6821 14.2665V27.1623H80.3954L81.7375 23.4809L83.4722 23.7267V28.9097H70.5048L70.2603 27.1659L72.3109 26.3729V14.2701L70.2603 13.4556L70.5048 11.7153Z"/>
<path d="M94.7066 13.4558H89.9933V19.082H92.5079L93.2414 17.0906L94.9993 17.3363V22.7652L93.2646 23.011L92.5079 21.0214H89.9933V27.1625H94.8119L96.1076 23.4775L97.8405 23.7232V28.9063H84.8642L84.6197 27.1625L86.6239 26.4018V14.2703L84.5715 13.4558L84.8392 11.7119H97.4175V16.0877L95.6578 16.3586L94.7066 13.4558Z"/>
<path d="M104.988 13.4558V26.3731L107.015 27.1589L106.746 28.9027H99.8589L99.5912 27.1589L101.594 26.3982V14.2703L99.5413 13.4558L99.8339 11.7119H108.259C110.97 11.7119 112.435 13.0126 112.435 13.0126C113.901 14.3151 113.901 16.6492 113.901 16.6492C113.901 18.5653 112.314 19.8911 112.314 19.8911C111.32 20.6953 110.096 21.1603 108.821 21.2187L110.428 22.053L112.871 26.4018L114.995 27.1625L114.727 28.9063H109.373L109.617 27.5554L106.009 21.2223V19.674H107.572C108.397 19.6584 109.184 19.3244 109.771 18.7411C110.286 18.1642 110.588 17.4269 110.626 16.6528C110.625 15.8168 110.33 15.0081 109.794 14.3689C108.968 13.4845 107.381 13.4558 107.381 13.4558H104.988Z"/>
</svg>
