<svg width="26" height="26" viewBox="0 0 26 26" fill="none" xmlns="http://www.w3.org/2000/svg">
<path d="M12.9997 24.6069C19.4102 24.6069 24.6069 19.4102 24.6069 12.9997C24.6069 6.58927 19.4102 1.39258 12.9997 1.39258C6.58927 1.39258 1.39258 6.58927 1.39258 12.9997C1.39258 19.4102 6.58927 24.6069 12.9997 24.6069Z" stroke="black" stroke-linecap="round" stroke-linejoin="round"/>
<path d="M13.0003 13.0729C14.9659 13.0729 16.5593 11.4795 16.5593 9.514C16.5593 7.54846 14.9659 5.95508 13.0003 5.95508C11.0348 5.95508 9.44141 7.54846 9.44141 9.514C9.44141 11.4795 11.0348 13.0729 13.0003 13.0729Z" fill="white" stroke="black" stroke-linecap="round" stroke-linejoin="round"/>
<path d="M19.8799 22.3495C17.9547 23.7683 15.5755 24.6069 13.0005 24.6069C10.4255 24.6069 8.04627 23.7683 6.12109 22.3495C6.5045 20.9056 7.33378 19.6152 8.49594 18.6653C9.7672 17.6262 11.3586 17.0586 13.0005 17.0586C14.6424 17.0586 16.2338 17.6262 17.505 18.6653C18.6672 19.6152 19.4965 20.9057 19.8799 22.3495Z" fill="white" stroke="black" stroke-linecap="round" stroke-linejoin="round"/>
</svg>
