<svg width="194" height="194" viewBox="0 0 194 194" fill="none" xmlns="http://www.w3.org/2000/svg">
<path d="M97 183.896C91.9075 183.896 87.1383 181.956 83.5817 178.319L71.2951 166.032C70.3251 165.062 67.7384 164.011 66.445 164.011H48.985C38.4767 164.011 29.9891 155.523 29.9891 145.014V127.555C29.9891 126.262 28.9383 123.675 27.9683 122.705L15.6817 110.418C12.125 106.862 10.1042 102.092 10.1042 96.9997C10.1042 91.9072 12.0442 87.1378 15.6817 83.5811L27.9683 71.2943C28.9383 70.3243 29.9891 67.7378 29.9891 66.4445V48.9852C29.9891 38.4769 38.4767 29.9886 48.985 29.9886H66.445C67.7384 29.9886 70.3251 28.9378 71.2951 27.9678L83.5817 15.6809C90.695 8.56761 103.305 8.56761 110.418 15.6809L122.705 27.9678C123.675 28.9378 126.262 29.9886 127.555 29.9886H145.015C155.523 29.9886 164.011 38.4769 164.011 48.9852V66.4445C164.011 67.7378 165.062 70.3243 166.032 71.2943L178.318 83.5811C181.875 87.1378 183.896 91.9072 183.896 96.9997C183.896 102.092 181.956 106.862 178.318 110.418L166.032 122.705C165.062 123.675 164.011 126.262 164.011 127.555V145.014C164.011 155.523 155.523 164.011 145.015 164.011H127.555C126.262 164.011 123.675 165.062 122.705 166.032L110.418 178.319C106.862 181.956 102.093 183.896 97 183.896ZM36.5366 114.136C39.7699 117.37 42.1141 123.028 42.1141 127.555V145.014C42.1141 148.813 45.1858 151.886 48.985 151.886H66.445C70.9717 151.886 76.6301 154.23 79.8634 157.463L92.15 169.75C94.7366 172.336 99.2634 172.336 101.85 169.75L114.137 157.463C117.37 154.23 123.028 151.886 127.555 151.886H145.015C148.814 151.886 151.886 148.813 151.886 145.014V127.555C151.886 123.028 154.23 117.37 157.463 114.136L169.75 101.85C171.043 100.556 171.771 98.8589 171.771 96.9997C171.771 95.1406 171.043 93.4433 169.75 92.1499L157.463 79.8631C154.23 76.6298 151.886 70.9712 151.886 66.4445V48.9852C151.886 45.1861 148.814 42.1136 145.015 42.1136H127.555C123.028 42.1136 117.37 39.7699 114.137 36.5366L101.85 24.2498C99.2634 21.6631 94.7366 21.6631 92.15 24.2498L79.8634 36.5366C76.6301 39.7699 70.9717 42.1136 66.445 42.1136H48.985C45.1858 42.1136 42.1141 45.1861 42.1141 48.9852V66.4445C42.1141 70.9712 39.7699 76.6298 36.5366 79.8631L24.25 92.1499C22.9567 93.4433 22.2292 95.1406 22.2292 96.9997C22.2292 98.8589 22.9567 100.556 24.25 101.85L36.5366 114.136Z" fill="#D0BA85"/>
<path d="M121.252 129.333C116.725 129.333 113.088 125.696 113.088 121.25C113.088 116.804 116.725 113.167 121.171 113.167C125.617 113.167 129.254 116.804 129.254 121.25C129.254 125.696 125.698 129.333 121.252 129.333Z" fill="#D0BA85"/>
<path d="M72.8309 80.8333C68.3042 80.8333 64.6666 77.1958 64.6666 72.75C64.6666 68.3041 68.3041 64.6666 72.75 64.6666C77.1958 64.6666 80.8333 68.3041 80.8333 72.75C80.8333 77.1958 77.2767 80.8333 72.8309 80.8333Z" fill="#D0BA85"/>
<path d="M72.7496 127.312C71.2137 127.312 69.6779 126.747 68.4654 125.534C66.1212 123.19 66.1212 119.31 68.4654 116.965L116.965 68.4654C119.31 66.1212 123.19 66.1212 125.534 68.4654C127.878 70.8096 127.878 74.69 125.534 77.0342L77.0337 125.534C75.8212 126.747 74.2854 127.312 72.7496 127.312Z" fill="#D0BA85"/>
</svg>
